<!DOCTYPE svg PUBLIC "-//W3C//DTD SVG 1.1//EN" "http://www.w3.org/Graphics/SVG/1.1/DTD/svg11.dtd">
<!-- Uploaded to: SVG Repo, www.svgrepo.com, Transformed by: SVG Repo Mixer Tools -->
<svg width="800px" height="800px" viewBox="-2.4 -2.4 28.80 28.80" fill="none" xmlns="http://www.w3.org/2000/svg">
<g id="SVGRepo_bgCarrier" stroke-width="0">
<path transform="translate(-2.4, -2.4), scale(0.8999999999999999)" d="M16,28.5545545560973C18.393716770482527,28.619628080377133,20.592711173408034,30.995979349381294,22.879394906173935,30.285210718140917C25.09795185698059,29.59561789659829,26.039937582111104,26.967244585371194,27.327729383717596,25.03356273997606C28.53887727575924,23.214965441866262,29.61040300449876,21.34320230214971,30.23000927267192,19.24790675699869C30.87328543194964,17.072567771467682,31.41487240918411,14.805990849885482,31.012322258305844,12.573535409099694C30.603605231113697,10.306879815737785,29.818975356117853,7.803280181170478,27.92898885996429,6.486948827903836C25.99584874187685,5.14056198711166,23.23277677900552,6.374031436325358,21.006204724969436,5.60450877297944C19.103603601747746,4.946953280457856,17.930676298231745,2.9340631056246216,16,2.3641865476965904C13.84106546759431,1.726935144524477,11.450218806252284,1.3901337796888034,9.334742569227075,2.159450331337256C7.187383935665005,2.940361272434638,5.682535153061951,4.849543662264296,4.25647431334942,6.634850773239197C2.829740955671469,8.42099981961579,1.4135982407365593,10.328607726822208,1.0118180550655627,12.579045278096446C0.6149896196349152,14.801747253842485,1.2971274207654604,17.05125406495867,2.0145785715470588,19.19208117764055C2.691565184136004,21.212164766013345,3.8803476430748978,22.948065429219557,5.077402130877045,24.710481138089204C6.3485078559952095,26.581922012677584,7.164404830724023,29.164975259223034,9.298403001332163,29.916009558938708C11.475920521853116,30.682359956360564,13.692416808947032,28.491822585188125,16,28.5545545560973" fill="#ffffff" strokewidth="0"/>
</g>
<g id="SVGRepo_tracerCarrier" stroke-linecap="round" stroke-linejoin="round"/>
<g id="SVGRepo_iconCarrier"> <path d="M12.0001 2.84955C17.0538 2.84955 21.1506 6.94637 21.1506 12.0001C21.1506 17.0537 17.0538 21.1506 12.0001 21.1506C6.94643 21.1506 2.84961 17.0537 2.84961 12.0001C2.84961 6.94637 6.94643 2.84955 12.0001 2.84955Z" stroke="#000000" stroke-width="1.69905" stroke-linecap="round"/> <path d="M7 12.6842H8.67217C8.75916 12.6842 8.83616 12.628 8.86266 12.5451L10.3761 7.81366C10.4405 7.61227 10.7327 7.63557 10.7643 7.84463L11.8836 15.2319C11.9146 15.4363 12.1974 15.4651 12.269 15.2712L14.0716 10.3871C14.1375 10.2086 14.3918 10.2142 14.4497 10.3954L15.1373 12.5451C15.1638 12.628 15.2408 12.6842 15.3278 12.6842H17" stroke="#000000" stroke-width="1.7" stroke-linecap="round"/> </g>
</svg>